<svg width="14" height="14" viewBox="0 0 14 14" fill="none" xmlns="http://www.w3.org/2000/svg">
<path fill-rule="evenodd" clip-rule="evenodd" d="M7.00309 14C5.61836 14.0006 4.26454 13.5905 3.11293 12.8216C1.96132 12.0526 1.06363 10.9594 0.533433 9.6802C0.00323897 8.40099 -0.135642 6.99328 0.134357 5.63512C0.404355 4.27697 1.07112 3.0294 2.05027 2.05024C3.02943 1.07109 4.27698 0.404355 5.63513 0.134357C6.99329 -0.135642 8.40102 0.00323897 9.68022 0.533434C10.9594 1.06363 12.0526 1.9613 12.8216 3.11292C13.5905 4.26453 14.0006 5.61834 14 7.00308C13.9998 8.85872 13.2626 10.6383 11.9504 11.9504C10.6383 13.2626 8.85872 13.9998 7.00309 14ZM12.0871 3.88664C12.4495 4.51917 11.7232 3.25412 12.0871 3.88664V3.88664ZM12.6454 5.08172C12.1643 3.66402 11.1677 2.47912 9.8533 1.76234C8.53895 1.04556 7.00308 0.849334 5.55075 1.21266C4.09841 1.57599 2.83584 2.47228 2.01382 3.72351C1.1918 4.97474 0.870463 6.48937 1.11362 7.96659C1.35677 9.44381 2.14666 10.7755 3.32636 11.6973C4.50605 12.619 5.98926 13.0633 7.48142 12.942C8.97359 12.8206 10.3655 12.1425 11.3808 11.0423C12.3961 9.94202 12.9604 8.50017 12.9617 7.00308C12.9621 6.34963 12.8552 5.70056 12.6454 5.08172ZM8.7859 8.76071L6.67982 7.78114C6.5935 7.73084 6.52461 7.65538 6.48235 7.56485C6.44008 7.47432 6.42647 7.37302 6.44333 7.27455V4.27428C6.44333 4.14438 6.49494 4.0198 6.58679 3.92795C6.67864 3.8361 6.80322 3.78449 6.93312 3.78449C7.06301 3.78449 7.18759 3.8361 7.27944 3.92795C7.37129 4.0198 7.4229 4.14438 7.4229 4.27428V7.05065L9.27568 7.91128C9.38832 7.97622 9.47055 8.08326 9.50428 8.20883C9.538 8.33441 9.52044 8.46824 9.45549 8.58089C9.39054 8.69353 9.28353 8.77574 9.15795 8.80946C9.03237 8.84319 8.89854 8.82566 8.7859 8.76071Z" fill="#9B9B9B"/>
</svg>
